HIERARCHY
ROOT Hips
{
	OFFSET -0.307096860106 -25.0773243393 2.16400719855
	CHANNELS 6 Xposition Yposition Zposition Zrotation Yrotation Xrotation
	JOINT LeftHip
	{
		OFFSET 6.60691251367 -9.15283833076 -1.04637069441
		CHANNELS 3 Zrotation Yrotation Xrotation
		JOINT LeftKnee
		{
			OFFSET 3.1110558577 -34.4835804856 -0.12681738932
			CHANNELS 3 Zrotation Yrotation Xrotation
			JOINT LeftFoot
			{
				OFFSET -1.39696595474 -35.9931274491 -4.13910264863
				CHANNELS 3 Zrotation Yrotation Xrotation
				End LeftToe
				{
                                  OFFSET 2.30072099968 -5.14230526486 11.548843244
				}
			}
		}
	}
	JOINT RightHip
	{
		OFFSET -6.41920830633 -9.00648660392 -0.824679088555
		CHANNELS 3 Zrotation Yrotation Xrotation
		JOINT RightKnee
		{
			OFFSET -3.41559048625 -35.4090141593 -0.549764947887
			CHANNELS 3 Zrotation Yrotation Xrotation
			JOINT RightFoot
			{
				OFFSET 1.60815257543 -36.0394695068 -3.99340325762
				CHANNELS 3 Zrotation Yrotation Xrotation
				End RightToe
				{
                                        OFFSET -2.18906603642 -4.42551277754 11.9237497134
				}
			}
		}
	}
	JOINT Waist
	{
		OFFSET -0.273405680315 11.002033926 -2.31746765591
		CHANNELS 3 Zrotation Yrotation Xrotation
		JOINT Spine
		{
			OFFSET 0.710643241817 15.2342638951 0.503316225005
			CHANNELS 3 Zrotation Yrotation Xrotation
                        JOINT Chest
                        {
                            OFFSET 0.131041245478 5.83122956935 2.49264930031
                            CHANNELS 3 Zrotation Yrotation Xrotation
                            JOINT Neck
                            {
                                OFFSET -0.382460072184 21.9460157558 -4.29068160856
                                CHANNELS 3 Zrotation Yrotation Xrotation
                                End Head
                                {
                                        OFFSET 0.0741634702089 27.8640605991 2.31439430995
                                }
                            }
                            JOINT LeftInnerShoulder
                            {
                                OFFSET 7.74558515388 12.1934922935 -3.29677054234
                                CHANNELS 3 Zrotation Yrotation Xrotation
                                JOINT LeftShoulder
                                {
                                        OFFSET 9.20562188488 2.6280180618 -0.881110993478
                                        CHANNELS 3 Zrotation Yrotation Xrotation
                                        JOINT LeftElbow
                                        {
                                                OFFSET 24.1686314729 -0.95168335886 -2.41703119077
                                                CHANNELS 3 Zrotation Yrotation Xrotation
                                                End LeftWrist
                                                {
                                                        OFFSET 22.9819944831 0.625145601029 -0.126779564677
                                                }
                                        }
                                }
                            }
                            JOINT RightInnerShoulder
                            {
                                OFFSET -8.09481598076 11.8292893582 -3.81295343402
                                CHANNELS 3 Zrotation Yrotation Xrotation
                                JOINT RightShoulder
                                {
                                        OFFSET -9.6911650395 2.86856553404 -0.956556826522
                                        CHANNELS 3 Zrotation Yrotation Xrotation
                                        JOINT RightElbow
                                        {
                                                OFFSET -23.4384916601 -0.971361863758 -1.91862937624
                                                CHANNELS 3 Zrotation Yrotation Xrotation
                                                End RightWrist
                                                {
                                                        OFFSET -23.4470054845 0.404088948339 -0.612048425831
                                                }
                                        }
                                }
                            }
                        }
                }
            }
}
MOTION
Frames: 18
Frame Time: 0.0333333333333
0.00000 0.00000 0.00000 -113.92135 -74.39261 -14.05385 10.57592 0.24868 -66.77528 -4.79185 13.65759 84.64293 4.73940 4.27386 -1.92421 -13.48331 4.33612 -69.44887 1.94597 1.42359 75.15274 7.01063 -3.02528 2.61216 1.31336 -0.19709 57.73232 0.88523 -1.27686 5.22327 2.64031 2.13700 0.03917 -3.40245 4.14673 18.09990 -0.69073 -22.86936 -6.99222 -30.04560 -34.44271 1.35611 44.11463 -58.84793 -36.66654 -8.77592 27.35096 -8.80364 35.44311 38.10961 5.20750 -65.76144 58.99101 -61.22040
6.00727 -0.24714 0.00911 -131.80436 -73.62711 -3.19114 8.43936 2.23463 -65.32226 -3.55845 16.62072 68.75389 3.76045 4.44558 4.71159 -12.43351 2.76441 -66.48437 -0.50094 -0.70311 72.37570 5.96039 -3.53428 4.11061 2.19478 -0.47867 58.88235 1.43376 -0.41290 3.35028 3.20293 2.93095 0.36829 -4.60803 2.26154 17.95073 -1.54075 -20.29088 -7.32262 -28.18516 -32.59842 0.85363 53.57492 -61.30234 -41.49631 -5.54099 28.93294 -7.11030 34.49218 38.38609 4.06192 -49.53773 55.81843 -46.75956
9.97165 -2.64515 -0.00510 -143.33356 -74.08599 2.70886 6.13855 0.47863 -65.70096 -1.55942 20.87108 58.60080 2.47027 4.56286 8.42760 -13.83286 -0.55791 -63.94121 -2.74456 -0.77957 64.46106 9.01447 -3.56728 6.39560 4.37217 -0.35961 59.93475 3.81955 0.69780 4.03484 4.76006 4.58087 -0.00890 -4.06140 0.96349 15.80705 -1.35962 -18.85367 -8.76421 -28.84767 -34.00576 -0.84476 69.07303 -62.52702 -50.83478 -1.97602 27.91266 -4.90181 35.96724 35.59457 2.79150 -59.08067 52.69437 -50.18905
15.72625 3.47182 0.01503 -151.21173 -72.02970 3.78361 3.03487 -0.52444 -63.61442 -2.90594 24.93755 49.82027 3.58901 1.48309 12.75141 -15.76731 -5.85925 -63.66246 -4.13947 -1.62504 62.53131 11.44182 1.31455 5.61764 7.42069 -1.82521 59.44210 4.40299 2.29574 2.44382 6.28107 6.76322 1.12877 -9.00316 -0.65045 21.68481 1.50600 -16.90356 -10.85612 -39.65591 -38.40063 2.98170 89.29084 -65.08719 -59.74705 -5.61061 24.47925 -4.25052 42.88936 30.98696 3.03616 -78.72358 58.02418 -61.11988
20.23542 11.02699 0.02810 -158.92128 -73.48182 4.85128 1.84926 0.20298 -62.68310 -4.34936 24.26843 43.58921 2.67376 -0.95085 11.19623 -16.83991 -5.76587 -63.07500 -3.50334 0.75259 58.91478 11.59051 4.20956 0.74242 7.51046 -3.88387 61.03599 3.55124 2.57826 4.08030 5.98942 6.74559 1.27254 -10.57145 5.87036 20.60996 2.21079 -13.52082 -11.09487 -41.39440 -33.12627 -1.16121 118.27453 -60.35750 -77.81730 -5.37682 26.41993 -5.04334 49.18045 37.27972 5.97886 -101.40446 61.85756 -74.42267
25.96799 16.27323 0.06421 -159.99004 -72.89322 3.35703 1.96284 -0.10029 -64.87679 -3.32957 25.10100 37.29019 -0.81103 -2.99655 13.97183 -18.96787 -6.67486 -62.55945 -6.36195 1.07405 50.45541 16.16271 4.29788 9.36453 7.96138 -3.18342 61.46489 4.42085 3.26173 6.89077 6.63581 6.89071 0.20230 -8.67639 3.82241 14.67851 7.38366 -11.38829 -12.22829 -50.37409 -33.60403 1.04992 144.50201 -48.88104 -100.42605 -11.87056 27.77405 -6.49907 60.19404 39.16378 13.33661 -127.49264 54.82350 -96.54066
35.13073 20.27553 0.03660 -162.99675 -76.60113 2.65337 3.45513 -0.82273 -66.31853 -1.64936 28.45695 29.76396 0.34812 -5.12176 16.46034 -18.31529 -8.50177 -60.38243 -8.05421 -3.70788 36.65745 12.62959 7.97955 8.91799 10.53814 -2.60959 62.95846 2.60676 5.03692 4.25014 7.36876 8.69460 -0.01077 -7.96420 7.77452 16.99791 8.44441 -17.63649 -14.07503 -61.27122 -36.09884 6.94096 148.26733 -44.10104 -97.36904 -18.77452 32.97758 -7.98268 68.37105 38.30075 15.33768 -135.62758 53.39348 -98.07294
40.91763 27.56768 0.04816 -170.70101 -82.43164 8.33124 5.24890 1.03898 -65.09038 0.53310 32.10719 20.74104 0.25201 -2.44242 17.87173 -13.67566 -8.80299 -57.38702 -8.18061 -12.46598 19.54111 9.92881 7.22449 1.59344 10.49230 -0.66864 62.81539 0.02763 4.81568 1.73697 9.34003 10.13540 2.09298 -7.92575 9.59355 26.86101 10.83964 -22.29398 -15.45939 -69.29845 -34.73516 16.84658 159.47131 -42.89930 -107.01370 -25.31941 38.63257 -9.14579 70.69974 41.77141 16.44485 -141.90108 58.51646 -105.94825
48.28689 36.48872 0.04715 -168.29170 -83.24630 0.23848 5.08310 -1.73159 -71.07319 1.61977 27.98679 35.65390 2.45074 -2.37149 16.08540 -13.55864 -9.89035 -62.14700 -9.03612 -11.64378 31.71096 10.03850 3.65485 6.39375 9.70864 -0.47725 64.15544 0.97762 4.90122 2.13884 7.57899 8.51056 2.83825 -0.60614 7.85820 28.57577 17.37832 -19.13295 -15.71207 -69.36325 -39.23195 17.89179 169.79214 -50.11745 -113.74201 -33.11705 32.85331 -12.56100 75.01144 39.11973 20.58647 -150.35453 63.02717 -109.81409
49.72234 40.32544 0.06913 148.76872 -84.54211 38.72752 7.90299 -0.90145 -71.94638 3.36958 24.64809 42.28930 -1.84955 -2.86940 14.94034 -11.51404 -6.93842 -62.28170 -6.07845 -11.62442 34.47752 8.34250 4.42793 3.54154 8.08361 0.61064 64.04209 2.39188 3.71242 4.73979 7.80233 6.73908 2.94055 3.29434 9.37665 27.74453 23.29507 -17.76249 -19.01878 -64.16876 -41.21556 13.47578 167.65637 -44.63145 -112.90679 -33.30439 30.95962 -12.86402 67.64438 40.09100 13.86400 -135.40160 62.58172 -92.65449
54.35170 38.90002 0.07592 91.67871 -84.36806 95.75852 8.69014 3.75623 -67.68554 0.85569 27.24078 31.73098 0.41435 -1.35624 13.54820 -7.39978 -5.78334 -64.02482 -8.28625 -17.57564 30.95807 4.79018 7.12236 1.40095 6.94053 0.06639 65.50326 -1.56503 2.12457 1.86665 9.42228 7.85700 2.14438 -11.33014 10.54373 40.48246 28.35203 -17.25859 -16.83883 -65.43873 -33.40019 10.47176 151.71945 -57.44359 -102.30475 -43.25824 27.40791 -15.28134 75.89316 40.23981 10.59092 -121.05776 60.67786 -82.62256
58.33442 42.41382 0.07625 74.36889 -82.49990 106.65061 10.10285 1.93789 -62.91463 -2.36506 17.89283 31.95559 -2.20550 -4.04312 12.97295 -7.11477 -4.46781 -60.63019 -6.78060 -18.40614 34.23019 1.98946 7.56187 -0.24792 7.93801 0.10612 66.50198 -1.78988 0.75191 11.92660 8.27747 8.25035 0.17779 -17.32591 11.50696 43.20308 37.94150 -22.03177 -21.16514 -52.58001 -30.85242 -2.91448 140.08197 -50.18834 -86.21030 -51.93992 31.58461 -19.68585 62.71102 39.76857 -9.61400 -117.96848 45.95948 -75.29188
63.30032 46.54808 0.07275 67.09912 -80.39229 108.93928 9.18752 1.53699 -57.52391 -2.06694 13.82333 29.13797 -3.11435 -1.61336 8.47363 -5.30135 -2.66201 -55.43460 -5.75949 -16.74574 31.15388 -1.08057 3.51695 -6.13118 6.64043 -1.47306 70.15247 -2.80679 -0.32978 13.86801 7.67257 6.37917 -0.92462 -17.32018 14.86550 40.13356 34.95697 -22.88587 -21.47346 -31.99986 -26.25428 -14.30247 128.84311 -50.14406 -76.51391 -45.36186 34.11774 -21.20023 40.54436 41.77963 -19.39109 -96.67119 50.58429 -55.29001
68.01201 48.47511 0.06612 63.79218 -78.11967 107.74350 10.85753 1.17432 -59.95458 -5.04781 9.43366 43.89484 -2.57607 -0.25814 1.11994 -5.56836 -2.90148 -57.21182 -3.04967 -14.55649 44.56371 -0.77611 -0.20777 -10.99446 5.60352 -0.82796 73.59474 -2.48078 -0.65101 15.17304 6.60538 6.01787 -1.89958 -14.77835 14.17546 35.80426 28.76352 -29.06070 -21.11049 -4.30932 -18.18458 -23.84620 114.80355 -54.78518 -72.66925 -35.92086 39.42710 -19.24179 19.83687 31.38086 -26.37870 -82.27401 55.81372 -47.05941
71.83089 48.94512 0.05255 62.33589 -74.78420 109.80834 12.80859 2.22955 -64.66224 -4.43329 10.06907 53.45695 -0.89056 1.15040 1.85004 -5.00315 -2.37206 -61.63310 -4.15586 -16.09704 54.05313 -4.22388 0.23566 -10.55030 5.29837 0.10381 74.11937 -2.67100 -0.85659 11.06084 6.95082 6.01959 -1.69616 -15.33872 13.47843 37.35585 32.63870 -27.76362 -23.21446 -6.71513 -20.50727 -23.00737 97.06648 -53.40701 -57.05894 -38.68302 37.16431 -20.81342 25.33405 33.71688 -23.89605 -68.06635 50.87792 -33.80350
74.66677 52.29776 0.05210 61.67644 -72.24451 107.67419 12.63300 1.77399 -63.04917 -6.23199 7.45130 59.28822 -2.99068 0.31215 1.00577 -4.01910 -2.82555 -58.70385 -3.50193 -15.63260 58.51304 -4.10685 -3.32429 -12.06649 4.53217 -0.47920 75.74998 -2.43837 -0.57285 12.58839 5.80231 5.18226 -2.02695 -12.18600 13.43918 31.02564 29.65944 -28.80157 -22.37585 3.16586 -21.63177 -29.83424 83.90829 -49.93536 -48.49237 -34.81233 38.04431 -20.77975 16.08657 35.02730 -26.95977 -57.19411 48.22574 -26.19406
76.98612 55.73815 0.04171 57.23086 -70.33588 112.50046 13.27033 3.22264 -63.32335 -6.91505 9.23868 66.02890 -0.70029 1.53261 -4.17749 -4.72168 -2.31449 -61.31415 -4.12470 -15.11191 67.78314 -4.85910 -3.90425 -14.06425 4.14476 -0.38474 76.01133 -3.43417 -0.13073 11.36941 5.42706 5.19634 -2.73247 -13.39114 12.33161 28.68439 26.70580 -30.56784 -21.57416 7.15546 -21.36803 -30.98733 78.25537 -48.46204 -46.69596 -32.61032 38.90576 -20.39784 12.46715 33.51312 -27.08935 -53.90381 47.29894 -26.92204
76.21053 59.57606 0.04009 57.81196 -70.21114 116.38155 13.53082 3.90200 -61.30326 -5.31238 11.94494 65.04545 -0.42859 1.75082 -2.81731 -7.16601 -3.02623 -63.91482 -5.25446 -15.90314 71.61156 -4.68789 -2.82359 -11.48578 4.41624 -0.79844 72.54870 -3.64519 -0.17510 10.70674 4.79679 5.43291 -3.91607 -15.68480 10.75768 28.43244 24.85998 -31.21379 -21.14049 5.49167 -16.92944 -27.44424 87.65656 -54.51362 -50.24254 -29.72678 38.70340 -18.92579 12.28412 28.67151 -25.86082 -62.95005 55.17876 -29.67884
